<svg width="205" height="77" viewBox="0 0 205 77" fill="none" xmlns="http://www.w3.org/2000/svg">
<path fill-rule="evenodd" clip-rule="evenodd" d="M81.8213 43.7196C81.5719 45.3733 80.9405 46.9466 79.9772 48.3156C79.0139 49.6845 77.7457 50.8112 76.2713 51.6067C75.863 51.8327 75.4351 52.0223 74.9937 52.1734C75.5548 59.5949 63.7382 62.2937 57.3703 60.526L59.7363 68.7841L53.6523 69L43.0052 53.7859C39.4157 54.7979 35.1771 55.2837 32.4393 50.8982C32.1906 50.4955 31.9649 50.0785 31.7633 49.6501C31.0669 49.7918 30.3582 49.864 29.6474 49.866C27.6194 49.866 24.2394 49.2588 22.5224 48.0713C21.1611 47.1706 20.0812 45.9056 19.406 44.4213C15.7488 44.9205 12.646 44.0637 10.618 41.9452C8.04916 39.3072 7.31908 34.9487 8.65756 30.2732C10.4219 24.0323 15.7894 17.0021 26.4567 14.3641C27.3821 13.2159 28.4896 12.2269 29.7353 11.436C36.4345 7.15176 47.3114 6.78068 55.5654 10.849C58.7653 10.2541 62.0685 10.5697 65.097 11.7598C71.0323 13.9796 75.3452 18.6214 76.1564 23.3374C77.7633 24.1684 79.0788 25.4673 79.9285 27.0617C81.7064 30.3946 81.9565 33.7343 80.76 36.433C81.8869 38.6858 82.2594 41.2401 81.8213 43.7196ZM77.4408 40.2113C76.4958 40.7092 75.4439 40.9696 74.3751 40.9696C73.3064 40.9696 72.2545 40.7092 71.3095 40.2113L71.803 36.939C73.885 37.1414 75.5818 36.4938 76.4674 35.1646C77.4611 33.6871 77.3056 31.4943 76.0482 29.1397C74.6422 26.5017 71.6069 26.0834 69.9237 26.0631H69.8155C65.5973 26.0631 61.2979 28.4583 59.5605 31.582L57.0323 30.3744C57.5294 28.7652 58.3739 27.2843 59.5065 26.0362C58.5314 25.2099 57.7944 24.1394 57.3714 22.9346C56.9485 21.7298 56.8548 20.4343 57.0999 19.1814L59.5944 18.952C59.7085 19.9653 60.1284 20.9202 60.7984 21.69C61.4684 22.4599 62.3572 23.0085 63.3462 23.2632C65.4269 22.3363 67.6861 21.8757 69.9642 21.9138C70.2887 21.9138 70.5997 21.9476 70.9174 21.9678C69.3011 19.108 66.7397 16.8972 63.6706 15.7135C56.1805 12.8123 51.1308 17.3125 49.9748 18.8643C47.1897 22.5885 48.9744 26.1104 50.3331 28.3975L48.1023 30.4216C46.1595 28.7443 44.8558 26.4495 44.4113 23.9244C41.5518 24.7812 37.7122 24.5991 35.5625 20.9355L37.5905 19.5457C39.8686 21.2459 43.4852 21.0975 45.2023 18.9992C45.6114 18.0714 46.1287 17.195 46.7435 16.3882C47.7197 15.1016 48.8976 13.9806 50.2317 13.0687C44.6277 11.5439 36.7117 11.7936 31.9256 14.8566C30.6322 15.6062 29.5677 16.6929 28.846 18.0003C28.1243 19.3078 27.7727 20.7866 27.829 22.2782C27.829 24.6868 29.7218 28.492 32.2703 29.0857L30.7899 31.9531C29.1638 31.5773 27.6876 30.7243 26.5513 29.504L24.3543 32.2972L22.1573 31.2312L24.307 25.6178C23.9558 24.5276 23.7757 23.3896 23.773 22.2444C23.7784 21.3377 23.8735 20.4338 24.0569 19.5457C17.2969 22.3321 13.9574 26.9672 12.7339 31.2042C11.7942 34.4629 12.1593 37.4046 13.7005 38.9833C14.9241 40.2382 16.7966 40.5351 18.561 40.4204L23.293 36.7434L24.8478 38.0523L23.4417 42.6536C24.1786 44.9948 26.5919 46.2024 30.9927 45.3523C31.2208 43.4895 31.9575 41.7252 33.1221 40.2517C33.9761 39.0252 35.1059 38.0158 36.421 37.3034L38.7329 31.0895L41.0448 30.9883L40.7947 36.0822C44.6817 35.6841 49.0284 36.4735 53.0777 35.8663L53.8213 38.565C47.886 41.3042 41.8087 36.8378 36.2993 42.7278C34.3186 44.8463 35.0757 46.6882 36.2993 48.5436C38.0637 51.1951 41.3761 49.6029 44.7629 48.5436C49.8937 46.9783 53.6185 45.8449 60.6422 46.4183C58.9657 43.2406 59.1279 39.4016 61.3722 35.1781L64.6779 36.4803C62.3592 41.817 64.5292 44.9071 66.0299 46.2699C68.3486 48.3749 71.8368 49.0091 74.1419 47.7407C75.0248 47.2543 75.7839 46.5715 76.3606 45.7457C76.9372 44.9199 77.3158 43.9726 77.4679 42.9775C77.62 42.0606 77.6085 41.1241 77.4341 40.2113H77.4408Z" fill="black"/>
<path d="M98.2227 30.0195C98.2227 29.6602 98.2734 29.293 98.375 28.918C98.4766 28.5352 98.6133 28.2188 98.7852 27.9688L99.9102 28.1797L101.176 17.2109L99.3711 16.9531C99.2227 16.5625 99.1484 16.1641 99.1484 15.7578C99.1484 15.3438 99.2305 14.9219 99.3945 14.4922C99.8086 14.2969 100.516 14.1406 101.516 14.0234C102.523 13.8984 103.418 13.8359 104.199 13.8359C104.926 13.8359 105.82 13.8516 106.883 13.8828L107.293 14.0703C107.465 14.5547 107.699 15.3867 107.996 16.5664C108.301 17.7383 108.816 19.8086 109.543 22.7773C109.66 23.2383 109.789 23.7617 109.93 24.3477C110.305 22.9883 110.766 21.0664 111.312 18.582L111.605 17.3047H111.664L109.719 16.9766C109.531 16.5391 109.438 16.0703 109.438 15.5703C109.438 15.2422 109.48 14.8867 109.566 14.5039C110.324 14.2617 111.113 14.0898 111.934 13.9883C112.762 13.8867 113.664 13.8359 114.641 13.8359H115.027C115.441 13.8359 116.031 13.8516 116.797 13.8828L117.207 14.0703C117.707 15.8828 118.184 18.082 118.637 20.668C119.098 23.2461 119.445 25.6133 119.68 27.7695L119.715 28.0625C119.723 28.1172 119.742 28.3047 119.773 28.625C119.805 28.9375 119.82 29.2383 119.82 29.5273C119.82 29.8789 119.785 30.2266 119.715 30.5703C119.598 31.0859 119.387 31.5117 119.082 31.8477C118.777 31.9727 118.457 32.0664 118.121 32.1289C117.793 32.1992 117.41 32.2344 116.973 32.2344C116.543 32.2344 116.113 32.1836 115.684 32.082C115.262 31.9883 114.98 31.8477 114.84 31.6602L115.262 28.9766L114.559 21.6055L114.617 17.6797H114.254L113.68 21.6992C112.914 24.5352 112.215 26.7305 111.582 28.2852C111.801 28.7148 111.988 29.1914 112.145 29.7148C112.309 30.2383 112.41 30.75 112.449 31.25C112.121 31.5625 111.672 31.8047 111.102 31.9766C110.539 32.1484 109.941 32.2344 109.309 32.2344C108.66 32.2344 108.066 32.1445 107.527 31.9648C106.996 31.7852 106.609 31.5352 106.367 31.2148C106.406 30.4258 106.602 29.6641 106.953 28.9297L104.867 21.3945L104 17.8438L103.602 17.9023L104.176 21.875C104.145 23.2578 104.094 24.6641 104.023 26.0938C103.953 27.5234 103.875 28.6562 103.789 29.4922H103.801C103.738 29.9844 103.57 30.4219 103.297 30.8047C103.031 31.1797 102.691 31.4727 102.277 31.6836C101.871 31.8945 101.43 32 100.953 32C99.7031 32 98.8008 31.4609 98.2461 30.3828C98.2305 30.2266 98.2227 30.1055 98.2227 30.0195ZM121.355 25.1914C121.355 23.8398 121.582 22.6328 122.035 21.5703C122.488 20.5078 123.188 19.668 124.133 19.0508C125.086 18.4258 126.273 18.1133 127.695 18.1133C128.438 18.1133 129.18 18.2031 129.922 18.3828C130.664 18.5547 131.293 18.8438 131.809 19.25C132.285 19.6328 132.629 20.1406 132.84 20.7734C133.059 21.3984 133.168 22.0938 133.168 22.8594C133.168 23.3672 133.125 23.8867 133.039 24.418C132.945 24.5742 132.762 24.7812 132.488 25.0391C132.215 25.2891 131.895 25.5352 131.527 25.7773C131.16 26.0195 130.805 26.207 130.461 26.3398C130.133 26.3633 129.793 26.375 129.441 26.375C128.824 26.375 128.199 26.3477 127.566 26.293C126.934 26.2383 126.379 26.1758 125.902 26.1055C125.965 26.7695 126.168 27.3477 126.512 27.8398C126.855 28.332 127.402 28.5781 128.152 28.5781C128.223 28.5781 128.336 28.5703 128.492 28.5547C128.969 28.5078 129.523 28.3828 130.156 28.1797C130.797 27.9688 131.434 27.7266 132.066 27.4531C132.363 27.75 132.582 28.0469 132.723 28.3438C132.863 28.6406 132.961 29.0664 133.016 29.6211C132.773 29.9023 132.379 30.2461 131.832 30.6523C131.293 31.0586 130.633 31.4258 129.852 31.7539C129.07 32.0742 128.254 32.2344 127.402 32.2344C126.121 32.2344 125.023 31.9258 124.109 31.3086C123.203 30.6836 122.516 29.8398 122.047 28.7773C121.586 27.707 121.355 26.5117 121.355 25.1914ZM128.902 22.4961C128.793 22.3789 128.609 22.2891 128.352 22.2266C128.094 22.1562 127.824 22.1211 127.543 22.1211C127.316 22.1211 127.086 22.1406 126.852 22.1797C126.625 22.2188 126.488 22.2617 126.441 22.3086C126.176 22.832 126.008 23.4258 125.938 24.0898L129.066 23.7852L128.902 22.4961ZM135.828 27.9219C135.828 26.6484 135.844 25.6875 135.875 25.0391C135.906 24.3828 135.988 23.4219 136.121 22.1562L134.773 21.9805C134.609 21.4727 134.5 21.0195 134.445 20.6211C134.398 20.2227 134.375 19.707 134.375 19.0742C134.5 18.9648 134.707 18.8359 134.996 18.6875C135.293 18.5312 135.641 18.3984 136.039 18.2891C136.445 18.1719 136.855 18.1133 137.27 18.1133C138.215 18.1133 138.883 18.3164 139.273 18.7227C139.672 19.1289 139.871 19.7383 139.871 20.5508C139.871 21.0039 139.805 21.6172 139.672 22.3906C139.453 23.6328 139.344 24.2852 139.344 24.3477C139.344 24.3867 139.371 24.4258 139.426 24.4648C139.48 24.4961 139.539 24.5117 139.602 24.5117C139.672 24.5117 139.719 24.4844 139.742 24.4297C139.734 24.4609 139.824 24.0664 140.012 23.2461C140.238 22.168 140.469 21.2891 140.703 20.6094C140.945 19.9297 141.328 19.3477 141.852 18.8633C142.375 18.3789 143.086 18.1367 143.984 18.1367C145.094 18.1367 145.895 18.457 146.387 19.0977C146.879 19.7305 147.125 20.5742 147.125 21.6289C147.125 22.4648 146.984 23.3945 146.703 24.418C146.703 24.457 146.73 24.4961 146.785 24.5352C146.84 24.5664 146.898 24.582 146.961 24.582C147.031 24.582 147.078 24.5547 147.102 24.5L147.266 23.8438C147.547 22.6875 147.824 21.7266 148.098 20.9609C148.379 20.1953 148.797 19.5352 149.352 18.9805C149.914 18.418 150.645 18.1367 151.543 18.1367C152.723 18.1367 153.57 18.5156 154.086 19.2734C154.609 20.0312 154.871 20.9844 154.871 22.1328C154.871 22.9453 154.793 23.7617 154.637 24.582C154.488 25.4023 154.328 26.0898 154.156 26.6445C153.992 27.1992 153.789 27.8398 153.547 28.5664L153.57 28.5898L155.305 27.8633C155.914 28.3867 156.27 29.082 156.371 29.9492C156.371 30.0039 156.195 30.2305 155.844 30.6289C155.492 31.0195 155.027 31.3867 154.449 31.7305C153.879 32.0664 153.223 32.2344 152.48 32.2344C151.738 32.2344 151.133 32.0352 150.664 31.6367C150.195 31.2383 149.961 30.5586 149.961 29.5977C149.961 28.5273 149.98 27.4297 150.02 26.3047C150.066 25.1719 150.133 24.1562 150.219 23.2578C150.086 23.1484 149.902 23.0898 149.668 23.082C149.434 23.3086 149.141 23.8047 148.789 24.5703C148.438 25.3281 148.113 26.1406 147.816 27.0078C147.52 27.8672 147.332 28.5391 147.254 29.0234C147.363 29.7891 147.531 30.5469 147.758 31.2969C147.617 31.5625 147.328 31.7852 146.891 31.9648C146.453 32.1445 145.914 32.2344 145.273 32.2344C144.695 32.2344 144.242 32.1875 143.914 32.0938C143.586 32 143.359 31.9023 143.234 31.8008C143.117 31.6992 143.059 31.6328 143.059 31.6016C143.051 31.5312 143.031 31.3477 143 31.0508C142.969 30.7461 142.938 30.3242 142.906 29.7852C142.875 29.2383 142.859 28.6172 142.859 27.9219C142.859 27.2578 142.91 26.4258 143.012 25.4258C143.02 25.3008 143.043 25.0039 143.082 24.5352C143.121 24.0664 143.141 23.6406 143.141 23.2578C143.008 23.1484 142.824 23.0898 142.59 23.082C142.457 23.1836 142.086 23.832 141.477 25.0273C140.867 26.2227 140.461 27.0664 140.258 27.5586C140.242 27.668 140.234 27.7734 140.234 27.875C140.234 28.2656 140.293 28.793 140.41 29.457C140.527 30.1133 140.672 30.7266 140.844 31.2969C140.703 31.5625 140.414 31.7852 139.977 31.9648C139.539 32.1445 139 32.2344 138.359 32.2344C137.781 32.2344 137.316 32.1875 136.965 32.0938C136.621 32 136.379 31.9023 136.238 31.8008C136.098 31.6914 136.027 31.625 136.027 31.6016C136.02 31.5312 136 31.3477 135.969 31.0508C135.938 30.7461 135.906 30.3242 135.875 29.7852C135.844 29.2383 135.828 28.6172 135.828 27.9219ZM157.121 25.0742C157.121 23.6602 157.348 22.4336 157.801 21.3945C158.254 20.3555 158.949 19.5508 159.887 18.9805C160.824 18.4023 162 18.1133 163.414 18.1133C164.977 18.1133 166.203 18.4062 167.094 18.9922C167.984 19.5703 168.605 20.375 168.957 21.4062C169.316 22.4375 169.496 23.6992 169.496 25.1914C169.496 26.543 169.258 27.75 168.781 28.8125C168.312 29.8672 167.602 30.7031 166.648 31.3203C165.703 31.9297 164.543 32.2344 163.168 32.2344C161.043 32.2344 159.504 31.582 158.551 30.2773C157.598 28.9648 157.121 27.2305 157.121 25.0742ZM163.648 28.8008C164.047 28.8008 164.289 28.7695 164.375 28.707C164.555 28.3945 164.691 27.9531 164.785 27.3828C164.879 26.8125 164.926 26.1953 164.926 25.5312C164.926 24.9219 164.887 24.3516 164.809 23.8203C164.73 23.2812 164.621 22.8594 164.48 22.5547C164.395 22.4531 164.223 22.3789 163.965 22.332C163.707 22.2773 163.426 22.25 163.121 22.25C162.723 22.25 162.449 22.293 162.301 22.3789C161.91 23.0508 161.715 23.9844 161.715 25.1797C161.715 25.7422 161.758 26.3164 161.844 26.9023C161.93 27.4883 162.039 28.0195 162.172 28.4961C162.266 28.5977 162.457 28.6758 162.746 28.7305C163.035 28.7773 163.336 28.8008 163.648 28.8008ZM172.262 28.8594C172.262 28.5234 172.27 27.6992 172.285 26.3867C172.309 23.8086 172.32 22.3984 172.32 22.1562L171.242 21.9805C171.094 21.5352 170.988 21.1172 170.926 20.7266C170.863 20.3359 170.832 19.9414 170.832 19.543C170.832 19.3789 170.836 19.2539 170.844 19.168C170.977 19.0508 171.184 18.9102 171.465 18.7461C171.746 18.582 172.078 18.4375 172.461 18.3125C172.844 18.1797 173.234 18.1133 173.633 18.1133C174.562 18.1133 175.234 18.3203 175.648 18.7344C176.07 19.1484 176.281 19.7539 176.281 20.5508C176.281 21.0352 176.219 21.6562 176.094 22.4141C175.977 23.1641 175.855 23.6992 175.73 24.0195L176.152 24.0898L176.855 21.4414C177.168 20.2461 177.559 19.3945 178.027 18.8867C178.496 18.3711 179.023 18.1133 179.609 18.1133C179.992 18.1133 180.371 18.1719 180.746 18.2891C181.129 18.4062 181.422 18.5508 181.625 18.7227C181.844 19.207 181.953 19.8516 181.953 20.6562C181.953 21.2188 181.898 21.7773 181.789 22.332C181.68 22.8789 181.539 23.3203 181.367 23.6562L178.906 23.3281C178.406 23.8594 177.875 24.5977 177.312 25.543C176.75 26.4805 176.301 27.3438 175.965 28.1328L175.953 28.7422L178.227 28.2031C178.609 28.7891 178.832 29.4844 178.895 30.2891C178.895 30.3359 178.719 30.5273 178.367 30.8633C178.016 31.1992 177.551 31.5117 176.973 31.8008C176.402 32.082 175.746 32.2227 175.004 32.2227C174.238 32.2227 173.598 32.0195 173.082 31.6133C172.574 31.1992 172.305 30.5039 172.273 29.5273C172.266 29.4102 172.262 29.1875 172.262 28.8594ZM186.969 30.5352C186.82 29.957 186.543 29.1211 186.137 28.0273C185.73 26.9258 185.305 25.8672 184.859 24.8516C184.414 23.8359 184.062 23.1367 183.805 22.7539L182.727 22.5664C182.617 22.2617 182.531 21.9258 182.469 21.5586C182.414 21.1836 182.367 20.75 182.328 20.2578C182.461 19.8906 182.664 19.543 182.938 19.2148C183.211 18.8867 183.539 18.6211 183.922 18.418C184.312 18.2148 184.734 18.1133 185.188 18.1133C185.93 18.1133 186.543 18.3242 187.027 18.7461C187.52 19.1602 187.898 19.6836 188.164 20.3164C188.438 20.9414 188.676 21.6797 188.879 22.5312C189.293 24.1797 189.559 26.2227 189.676 28.6602L189.934 28.6133C190.238 27.9336 190.496 26.9609 190.707 25.6953C190.926 24.4297 191.043 23.2148 191.059 22.0508L189.594 21.8281C189.422 21.1719 189.336 20.4023 189.336 19.5195C189.508 19.3086 189.754 19.0977 190.074 18.8867C190.402 18.668 190.789 18.4844 191.234 18.3359C191.68 18.1875 192.152 18.1133 192.652 18.1133C194.668 18.1133 195.676 19.125 195.676 21.1484C195.676 22.7422 195.387 24.2891 194.809 25.7891C194.238 27.2891 193.379 28.6445 192.23 29.8555C191.082 31.0664 189.684 32.0195 188.035 32.7148L188.129 33.1016C188.34 33.125 188.547 33.1367 188.75 33.1367C189.414 33.1367 190.215 33.0273 191.152 32.8086C191.684 33.4023 191.949 34.0508 191.949 34.7539C191.949 34.9648 191.926 35.1797 191.879 35.3984C191.41 35.8516 190.824 36.2422 190.121 36.5703C189.418 36.8984 188.645 37.0625 187.801 37.0625C186.574 37.0625 185.582 36.7852 184.824 36.2305C184.066 35.6758 183.688 34.832 183.688 33.6992C183.688 33.1914 183.84 32.7461 184.145 32.3633C184.457 31.9883 184.816 31.6836 185.223 31.4492C185.637 31.207 186.219 30.9023 186.969 30.5352ZM98.7852 53.0469C98.7852 51.2656 99.043 49.6875 99.5586 48.3125C100.074 46.9297 100.887 45.8398 101.996 45.043C103.113 44.2383 104.531 43.8359 106.25 43.8359C106.859 43.8359 107.52 43.875 108.23 43.9531C108.941 44.0234 109.637 44.1367 110.316 44.293C110.738 44.543 111.105 44.8047 111.418 45.0781C111.738 45.3438 112.043 45.668 112.332 46.0508C112.332 46.6055 112.258 47.3398 112.109 48.2539C111.961 49.168 111.773 50.0195 111.547 50.8086C111.328 51.5977 111.117 52.1094 110.914 52.3438C110.711 52.4453 110.539 52.5156 110.398 52.5547C110.258 52.5859 110.039 52.6016 109.742 52.6016C109.375 52.6016 109.031 52.5742 108.711 52.5195C108.391 52.4648 108.148 52.3906 107.984 52.2969L107.574 48.3477C107.02 48.1914 106.133 48.1133 104.914 48.1133C104.648 48.1133 104.453 48.1172 104.328 48.125C103.992 49.2031 103.805 50.6523 103.766 52.4727V52.9297C103.766 54.0938 103.84 55.1211 103.988 56.0117C104.09 56.5977 104.176 57.0469 104.246 57.3594C104.324 57.6719 104.418 57.9141 104.527 58.0859C104.645 58.25 104.789 58.332 104.961 58.332C105.57 58.332 106.113 58.1211 106.59 57.6992C107.074 57.2773 107.488 56.7383 107.832 56.082L107.516 54.4062C108.539 54.0625 109.551 53.8867 110.551 53.8789C111.035 53.8789 111.457 53.9336 111.816 54.043C112.176 54.1523 112.418 54.3672 112.543 54.6875C112.395 55.8438 112.156 57.2617 111.828 58.9414C111.5 60.6211 111.254 61.6406 111.09 62C110.59 62.1562 110.105 62.2344 109.637 62.2344C109.395 62.2344 109.137 62.2148 108.863 62.1758C108.598 62.1367 108.363 62.0781 108.16 62C108.16 61.7422 108.137 61.1289 108.09 60.1602L108.055 59.293L107.738 59.1992C107.199 60.1055 106.594 60.8398 105.922 61.4023C105.25 61.957 104.52 62.2344 103.73 62.2344C102.715 62.2344 101.836 61.8594 101.094 61.1094C100.352 60.3594 99.7812 59.293 99.3828 57.9102C98.9844 56.5195 98.7852 54.8984 98.7852 53.0469ZM117.676 54.2773C118.137 54.2773 118.645 54.3242 119.199 54.418C119.762 54.5117 120.277 54.625 120.746 54.7578V54.3945C120.746 54.1523 120.738 53.8828 120.723 53.5859C120.715 53.2891 120.699 53.0938 120.676 53C120.605 52.8672 120.402 52.7305 120.066 52.5898C119.738 52.4492 119.199 52.3789 118.449 52.3789C117.988 52.3789 117.512 52.4375 117.02 52.5547C116.535 52.6641 115.996 52.8125 115.402 53C115.082 52.4688 114.824 51.9648 114.629 51.4883C114.441 51.0039 114.348 50.5195 114.348 50.0352C114.348 49.8867 114.359 49.7383 114.383 49.5898C115.648 48.6055 117.285 48.1133 119.293 48.1133C120.402 48.1133 121.387 48.2383 122.246 48.4883C123.105 48.7383 123.812 49.2227 124.367 49.9414C124.922 50.6602 125.199 51.6797 125.199 53C125.199 54.2891 125.047 55.5391 124.742 56.75C124.445 57.9531 124.293 58.5664 124.285 58.5898L125.984 57.8633C126.211 58.1055 126.41 58.4023 126.582 58.7539C126.762 59.0977 126.875 59.4961 126.922 59.9492C126.812 60.1836 126.574 60.4844 126.207 60.8516C125.84 61.2109 125.391 61.5312 124.859 61.8125C124.328 62.0938 123.773 62.2344 123.195 62.2344C122.547 62.2344 122.055 62.043 121.719 61.6602C121.391 61.2773 121.227 60.7812 121.227 60.1719C121.227 59.8281 121.277 59.4805 121.379 59.1289L121.027 59.0234C120.809 60.2578 120.344 61.1016 119.633 61.5547C118.922 62.0078 118.137 62.2344 117.277 62.2344C116.715 62.2344 116.172 62.0781 115.648 61.7656C115.125 61.4453 114.699 60.9844 114.371 60.3828C114.043 59.7734 113.879 59.0625 113.879 58.25C113.879 56.9531 114.203 55.9688 114.852 55.2969C115.5 54.6172 116.441 54.2773 117.676 54.2773ZM119.012 58.7422C119.207 58.7031 119.438 58.5938 119.703 58.4141C119.977 58.2344 120.219 58.0195 120.43 57.7695C120.641 57.5195 120.766 57.2812 120.805 57.0547L120.734 56.7734C120.32 56.7188 119.879 56.6914 119.41 56.6914C119.012 56.6914 118.738 56.7227 118.59 56.7852C118.34 57.0664 118.215 57.3789 118.215 57.7227C118.215 57.9727 118.277 58.1992 118.402 58.4023C118.535 58.6055 118.738 58.7188 119.012 58.7422ZM128.609 57.9219C128.609 56.6484 128.625 55.6875 128.656 55.0391C128.688 54.3828 128.77 53.4219 128.902 52.1562L127.555 51.9805C127.391 51.4727 127.281 51.0195 127.227 50.6211C127.18 50.2227 127.156 49.707 127.156 49.0742C127.281 48.9648 127.488 48.8359 127.777 48.6875C128.074 48.5312 128.422 48.3984 128.82 48.2891C129.227 48.1719 129.637 48.1133 130.051 48.1133C130.996 48.1133 131.664 48.3164 132.055 48.7227C132.453 49.1289 132.652 49.7383 132.652 50.5508C132.652 51.0039 132.586 51.6172 132.453 52.3906C132.234 53.6328 132.125 54.2852 132.125 54.3477C132.125 54.3867 132.152 54.4258 132.207 54.4648C132.262 54.4961 132.32 54.5117 132.383 54.5117C132.453 54.5117 132.5 54.4844 132.523 54.4297C132.516 54.4609 132.605 54.0664 132.793 53.2461C133.02 52.168 133.25 51.2891 133.484 50.6094C133.727 49.9297 134.109 49.3477 134.633 48.8633C135.156 48.3789 135.867 48.1367 136.766 48.1367C137.875 48.1367 138.676 48.457 139.168 49.0977C139.66 49.7305 139.906 50.5742 139.906 51.6289C139.906 52.4648 139.766 53.3945 139.484 54.418C139.484 54.457 139.512 54.4961 139.566 54.5352C139.621 54.5664 139.68 54.582 139.742 54.582C139.812 54.582 139.859 54.5547 139.883 54.5L140.047 53.8438C140.328 52.6875 140.605 51.7266 140.879 50.9609C141.16 50.1953 141.578 49.5352 142.133 48.9805C142.695 48.418 143.426 48.1367 144.324 48.1367C145.504 48.1367 146.352 48.5156 146.867 49.2734C147.391 50.0312 147.652 50.9844 147.652 52.1328C147.652 52.9453 147.574 53.7617 147.418 54.582C147.27 55.4023 147.109 56.0898 146.938 56.6445C146.773 57.1992 146.57 57.8398 146.328 58.5664L146.352 58.5898L148.086 57.8633C148.695 58.3867 149.051 59.082 149.152 59.9492C149.152 60.0039 148.977 60.2305 148.625 60.6289C148.273 61.0195 147.809 61.3867 147.23 61.7305C146.66 62.0664 146.004 62.2344 145.262 62.2344C144.52 62.2344 143.914 62.0352 143.445 61.6367C142.977 61.2383 142.742 60.5586 142.742 59.5977C142.742 58.5273 142.762 57.4297 142.801 56.3047C142.848 55.1719 142.914 54.1562 143 53.2578C142.867 53.1484 142.684 53.0898 142.449 53.082C142.215 53.3086 141.922 53.8047 141.57 54.5703C141.219 55.3281 140.895 56.1406 140.598 57.0078C140.301 57.8672 140.113 58.5391 140.035 59.0234C140.145 59.7891 140.312 60.5469 140.539 61.2969C140.398 61.5625 140.109 61.7852 139.672 61.9648C139.234 62.1445 138.695 62.2344 138.055 62.2344C137.477 62.2344 137.023 62.1875 136.695 62.0938C136.367 62 136.141 61.9023 136.016 61.8008C135.898 61.6992 135.84 61.6328 135.84 61.6016C135.832 61.5312 135.812 61.3477 135.781 61.0508C135.75 60.7461 135.719 60.3242 135.688 59.7852C135.656 59.2383 135.641 58.6172 135.641 57.9219C135.641 57.2578 135.691 56.4258 135.793 55.4258C135.801 55.3008 135.824 55.0039 135.863 54.5352C135.902 54.0664 135.922 53.6406 135.922 53.2578C135.789 53.1484 135.605 53.0898 135.371 53.082C135.238 53.1836 134.867 53.832 134.258 55.0273C133.648 56.2227 133.242 57.0664 133.039 57.5586C133.023 57.668 133.016 57.7734 133.016 57.875C133.016 58.2656 133.074 58.793 133.191 59.457C133.309 60.1133 133.453 60.7266 133.625 61.2969C133.484 61.5625 133.195 61.7852 132.758 61.9648C132.32 62.1445 131.781 62.2344 131.141 62.2344C130.562 62.2344 130.098 62.1875 129.746 62.0938C129.402 62 129.16 61.9023 129.02 61.8008C128.879 61.6914 128.809 61.625 128.809 61.6016C128.801 61.5312 128.781 61.3477 128.75 61.0508C128.719 60.7461 128.688 60.3242 128.656 59.7852C128.625 59.2383 128.609 58.6172 128.609 57.9219ZM149.902 55.1914C149.902 53.8398 150.129 52.6328 150.582 51.5703C151.035 50.5078 151.734 49.668 152.68 49.0508C153.633 48.4258 154.82 48.1133 156.242 48.1133C156.984 48.1133 157.727 48.2031 158.469 48.3828C159.211 48.5547 159.84 48.8438 160.355 49.25C160.832 49.6328 161.176 50.1406 161.387 50.7734C161.605 51.3984 161.715 52.0938 161.715 52.8594C161.715 53.3672 161.672 53.8867 161.586 54.418C161.492 54.5742 161.309 54.7812 161.035 55.0391C160.762 55.2891 160.441 55.5352 160.074 55.7773C159.707 56.0195 159.352 56.207 159.008 56.3398C158.68 56.3633 158.34 56.375 157.988 56.375C157.371 56.375 156.746 56.3477 156.113 56.293C155.48 56.2383 154.926 56.1758 154.449 56.1055C154.512 56.7695 154.715 57.3477 155.059 57.8398C155.402 58.332 155.949 58.5781 156.699 58.5781C156.77 58.5781 156.883 58.5703 157.039 58.5547C157.516 58.5078 158.07 58.3828 158.703 58.1797C159.344 57.9688 159.98 57.7266 160.613 57.4531C160.91 57.75 161.129 58.0469 161.27 58.3438C161.41 58.6406 161.508 59.0664 161.562 59.6211C161.32 59.9023 160.926 60.2461 160.379 60.6523C159.84 61.0586 159.18 61.4258 158.398 61.7539C157.617 62.0742 156.801 62.2344 155.949 62.2344C154.668 62.2344 153.57 61.9258 152.656 61.3086C151.75 60.6836 151.062 59.8398 150.594 58.7773C150.133 57.707 149.902 56.5117 149.902 55.1914ZM157.449 52.4961C157.34 52.3789 157.156 52.2891 156.898 52.2266C156.641 52.1562 156.371 52.1211 156.09 52.1211C155.863 52.1211 155.633 52.1406 155.398 52.1797C155.172 52.2188 155.035 52.2617 154.988 52.3086C154.723 52.832 154.555 53.4258 154.484 54.0898L157.613 53.7852L157.449 52.4961Z" fill="black"/>
</svg>
